<svg id="Layer_1" data-name="Layer 1" xmlns="http://www.w3.org/2000/svg" viewBox="0 0 200 64.43"><title>bam</title><g id="HOME"><g id="Home-2" data-name="Home"><g id="Burger-Menu-_-Bam-Logo" data-name="Burger-Menu-+-Bam-Logo"><g id="Bam-Logo"><g id="Fill-2-_-Fill-3-_-Fill-4" data-name="Fill-2-+-Fill-3-+-Fill-4"><path id="Fill-2" d="M0,0H30.42C42.74,0,51.07,4,51.07,16c0,6.32-3.17,10.74-8.78,13.45,7.87,2.26,11.86,8.3,11.86,16.32,0,13.09-11.13,18.68-22.82,18.68H0V0ZM14.22,26.09H28.61c5,0,8.69-2.27,8.69-7.67,0-6.14-4.71-7.4-9.77-7.4H14.22V26.09Zm0,27.34H29.43c5.62,0,10.5-1.81,10.5-8.49s-4.15-9.21-10.22-9.21H14.22v17.7Z" fill="#fff"/><path id="Fill-3" d="M83.8,0H98.38l24.17,64.43H107.79l-4.89-14.34H78.73L73.66,64.43H59.26L83.8,0ZM82.44,39.53H99.19L91,15.88h-.18L82.44,39.53Z" fill="#fff"/><path id="Fill-4" d="M130.36,0h20L165.5,44.31h.18L180,0h20V64.43H186.69V18.77h-.18L170.66,64.43h-11L143.86,19.22h-.19V64.43h-13.3V0" fill="#fff"/></g></g></g></g></g></svg>